<svg xmlns="http://www.w3.org/2000/svg" viewBox="0 0 51.3 39.47"><defs><style>.cls-1{fill:#4c446e;}</style></defs><g id="Layer_2" data-name="Layer 2"><g id="Layer_1-2" data-name="Layer 1"><path class="cls-1" d="M15.06,24.74a14.48,14.48,0,0,1-4.94-.68l-.79,3.16,12.14-.11a7.83,7.83,0,0,0,2.89-.6A10.72,10.72,0,0,0,27,25a10.58,10.58,0,0,0,2.11-2.27,10,10,0,0,0,.8-1.41l-1.31.52A40,40,0,0,1,15.06,24.74Z"/><path class="cls-1" d="M26.29,20s0,.05,0,.08c.49-.17,1-.35,1.46-.54,1.1-.42,2.15-.88,3.13-1.35l3-11.78v0l-11.49.11-1,4.09,7.39-.07Z"/><polygon class="cls-1" points="34.46 4.05 35.49 0 31.38 0.04 30.35 4.09 34.46 4.05"/><path class="cls-1" d="M43.49,7.25c-.8-2.07-3.92-3-8.2-2.78A32.74,32.74,0,0,0,31,5c-.72.14-1.45.3-2.2.48L35,5.41v0c3.31,0,5.7.89,6.37,2.62,1.13,2.94-3.08,7.39-9.77,10.73l-1.06.5c-.81.38-1.65.73-2.51,1.07s-1.57.58-2.34.83h0c-.68.21-1.35.41-2,.58-.47.13-.93.24-1.38.34-4.19.94-7.85,1-10.13.1a3.67,3.67,0,0,1-2.28-2C8.72,17.12,13.47,12.33,20.81,9l.2-.82C12.26,12,6.47,17.52,7.82,21A3.46,3.46,0,0,0,9.5,22.8a6.47,6.47,0,0,0,.84.38c2.52.93,6.56.88,11.21-.16,1-.22,2.1-.5,3.19-.83s2.35-.76,3.56-1.22c.7-.27,1.38-.55,2.05-.85.36-.15.71-.31,1.06-.48C39.53,15.85,44.79,10.61,43.49,7.25Z"/><path class="cls-1" d="M.34,37.75a3.46,3.46,0,0,0,1,.15c.78,0,1.27-.38,1.5-1.62l1-5.3H5.63l-1,5.52c-.4,2.11-1.32,3-3.21,3A4,4,0,0,1,0,39.27Z"/><path class="cls-1" d="M14.21,34.33a5.56,5.56,0,0,1-1.49,3.94,4.33,4.33,0,0,1-3.09,1.2A3.26,3.26,0,0,1,6.24,36a5.52,5.52,0,0,1,1.55-4,4.35,4.35,0,0,1,3-1.19A3.2,3.2,0,0,1,14.21,34.33ZM9.19,33a4.53,4.53,0,0,0-1,3c0,1.17.53,2,1.76,2a1.94,1.94,0,0,0,1.39-.61,4.76,4.76,0,0,0,1-3c0-1-.38-2-1.69-2A2,2,0,0,0,9.19,33Z"/><path class="cls-1" d="M16.45,31.13a11.44,11.44,0,0,1,2.19-.2,3.9,3.9,0,0,1,2.07.44,1.7,1.7,0,0,1,1,1.53,2.11,2.11,0,0,1-1.68,2v0a1.8,1.8,0,0,1,1.31,1.82,2.33,2.33,0,0,1-1.14,2,5.67,5.67,0,0,1-3.15.68,11.21,11.21,0,0,1-2.1-.15ZM16.89,38a4.94,4.94,0,0,0,.69,0c1,0,1.84-.38,1.84-1.31s-.69-1.07-1.53-1.07h-.55Zm.72-3.66h.6c1,0,1.64-.41,1.64-1.13s-.48-.86-1.17-.86a3.6,3.6,0,0,0-.7.06Z"/><path class="cls-1" d="M22.75,37.4a3.88,3.88,0,0,0,2,.53c.69,0,1.32-.32,1.32-1,0-.48-.36-.78-1.13-1.19a2.64,2.64,0,0,1-1.73-2.21c0-1.68,1.48-2.71,3.29-2.71a4,4,0,0,1,2,.42l-.56,1.48a3.39,3.39,0,0,0-1.56-.36c-.83,0-1.27.41-1.27.87s.51.79,1.22,1.18a2.52,2.52,0,0,1,1.66,2.21c0,1.86-1.54,2.82-3.4,2.82a4.23,4.23,0,0,1-2.39-.6Z"/><path class="cls-1" d="M29,39.34,30.56,31h2.1l1.1,3.19c.34,1.07.56,1.93.76,2.85h0a21.5,21.5,0,0,1,.39-3l.57-3h1.67l-1.59,8.36H33.75L32.58,36a27.06,27.06,0,0,1-.81-2.91h0c-.09.82-.29,2-.54,3.31l-.55,2.93Z"/><path class="cls-1" d="M42.93,35.8H40l-.39,2h3.34l-.29,1.53H37.51L39.09,31H44l-.3,1.52H40.59l-.34,1.79h3Z"/><path class="cls-1" d="M47,32.54H44.78L45.09,31H51.3L51,32.54H48.77l-1.28,6.8H45.71Z"/></g></g></svg>